<?xml version="1.0" encoding="utf-8"?>
<!-- Generator: Adobe Illustrator 18.1.0, SVG Export Plug-In . SVG Version: 6.00 Build 0)  -->
<svg version="1.1" id="Layer_1" xmlns="http://www.w3.org/2000/svg" xmlns:xlink="http://www.w3.org/1999/xlink" x="0px" y="0px"
	 viewBox="0 0 170.1 91" enable-background="new 0 0 170.1 91" xml:space="preserve">
<g>
	<path fill="#442B6B" d="M27,39.3H8.9l-2.2,5.6H0L17.9,0l17.9,44.8h-6.6L27,39.3z M24.5,33.1l-6.6-16.4l-6.5,16.4H24.5z"/>
	<path fill="#442B6B" d="M95.1,39.3H77l-2.2,5.6h-6.7L86,0L104,44.8h-6.6L95.1,39.3z M92.6,33.1L86,16.7l-6.5,16.4H92.6z"/>
	<path fill="#442B6B" d="M110.8,41.5c-2.8-2.4-4.2-5.6-4.2-9.6h6c0,2.3,0.9,4,2.6,5.3c1.4,1,3,1.5,4.8,1.5c2.2,0,4-0.6,5.6-1.7
		c1.5-1.1,2.3-2.7,2.3-4.8c0-1.4-0.5-2.5-1.4-3.3c-1.3-1.3-3.6-2.2-6.8-2.5c-4.6-0.5-8.1-2.2-10.5-4.8c-2-2.2-3-4.8-3-7.7
		c0-3.4,1-6.5,3.1-9.1c2.5-3.2,6.1-4.8,10.6-4.8c4.2,0,7.6,1.3,10.3,4c2.7,2.7,4.1,6.3,4.1,10.9h-6c0-2.6-0.6-4.7-1.9-6.2
		c-1.5-1.8-3.7-2.7-6.5-2.7c-3.1,0-5.4,1.3-6.7,3.9c-0.7,1.3-1,2.7-1,4c0,1.1,0.4,2.2,1.2,3.3c1.4,1.8,3.7,2.8,7.1,3.2
		c5.1,0.6,8.7,2.2,11,5c1.8,2.1,2.6,4.6,2.6,7.8c0,3.2-1.3,5.9-3.9,8.2c-2.6,2.3-5.9,3.4-10,3.4C116.4,44.8,113.4,43.7,110.8,41.5z"
		/>
	<path fill="#442B6B" d="M170.1,0v44.8H164V33h-17.9v11.7H140V0h6.1v26.9H164V0H170.1z"/>
	<path fill="#009DBC" d="M25.3,88.2c-0.9,0.6-1.8,1.1-2.8,1.5c-1,0.4-2,0.7-3,0.9c-1.1,0.2-2.2,0.3-3.3,0.3c-1.1,0-2.2-0.1-3.3-0.3
		c-1-0.2-2-0.5-3-0.9c-1-0.4-1.9-0.9-2.8-1.5c-0.9-0.6-1.6-1.3-2.4-2c-0.7-0.7-1.4-1.5-2-2.4C2.2,83,1.7,82,1.3,81.1
		c-0.4-1-0.7-2-1-3.1C0.1,77,0,75.9,0,74.7s0.1-2.2,0.3-3.3c0.2-1.1,0.6-2.1,1-3c0.4-1,0.9-1.9,1.5-2.8c0.6-0.9,1.2-1.7,2-2.4
		c0.7-0.7,1.5-1.4,2.4-2c0.9-0.6,1.8-1.1,2.8-1.5c1-0.4,2-0.8,3-1c1.1-0.2,2.2-0.3,3.3-0.3c1.1,0,2.2,0.1,3.3,0.3
		c1.1,0.2,2.1,0.5,3,1c1,0.4,1.9,0.9,2.8,1.5c0.8,0.6,1.6,1.2,2.3,1.9l-3,3c-0.5-0.5-1.1-1-1.7-1.3c-0.6-0.4-1.3-0.8-2.1-1.1
		c-0.7-0.3-1.5-0.6-2.2-0.7c-0.8-0.2-1.6-0.3-2.4-0.3c-0.8,0-1.6,0.1-2.4,0.3c-0.8,0.1-1.5,0.4-2.2,0.7c-0.7,0.3-1.4,0.7-2.1,1.1
		c-0.6,0.4-1.2,0.9-1.8,1.5c-0.6,0.6-1,1.1-1.5,1.8c-0.4,0.6-0.8,1.3-1.1,2c-0.3,0.7-0.6,1.5-0.7,2.3c-0.2,0.8-0.2,1.6-0.2,2.4
		c0,0.8,0.1,1.6,0.2,2.4c0.2,0.8,0.4,1.5,0.7,2.2c0.3,0.7,0.7,1.4,1.1,2c0.4,0.6,0.9,1.2,1.5,1.8c0.6,0.6,1.1,1,1.8,1.5
		c0.7,0.4,1.3,0.8,2.1,1.1c0.7,0.3,1.5,0.5,2.2,0.7c0.8,0.2,1.6,0.3,2.4,0.3c0.8,0,1.6-0.1,2.4-0.3c0.8-0.2,1.5-0.4,2.2-0.7
		c0.7-0.3,1.4-0.7,2.1-1.1c0.7-0.4,1.2-0.9,1.8-1.5c0.6-0.6,1.1-1.1,1.5-1.8c0.4-0.7,0.8-1.3,1.1-2c0.3-0.7,0.6-1.5,0.7-2.2l0.1-0.3
		h-8.5v-4.2h12.8v2.1c0,1.1-0.1,2.2-0.3,3.3c-0.2,1-0.5,2.1-0.9,3.1c-0.4,1-0.9,1.9-1.5,2.8c-0.6,0.8-1.2,1.6-2,2.4
		C27,86.9,26.2,87.6,25.3,88.2z"/>
	<path fill="#009DBC" d="M50.4,91l-5.7-7.2h-4.8V91h-4.6V58.5h8c3.5,0,6.4,1.2,8.9,3.7c2.5,2.5,3.7,5.4,3.7,8.9
		c0,3.5-1.2,6.5-3.7,8.9c-0.9,0.8-1.8,1.6-2.9,2.2l6.9,8.8H50.4z M43.3,79.2c2.2,0,4.1-0.8,5.7-2.4c1.6-1.6,2.4-3.4,2.4-5.7
		c0-2.2-0.8-4.1-2.4-5.7c-1.6-1.6-3.4-2.4-5.7-2.4h-3.4v16.1H43.3z"/>
	<path fill="#009DBC" d="M78.6,86.9H65.4l-1.6,4H59l13-32.5L85,91h-4.8L78.6,86.9z M76.7,82.5L72,70.5l-4.7,11.9H76.7z"/>
	<path fill="#009DBC" d="M92.3,91h-4.6V58.5h7.8c3.5,0,6.4,1.2,8.9,3.7c2.5,2.5,3.7,5.4,3.7,8.9c0,3.5-1.2,6.5-3.7,8.9
		c-2.5,2.5-5.4,3.7-8.9,3.7h-3.3V91z M92.3,79.2h3.3c2.2,0,4.1-0.8,5.7-2.3c1.6-1.6,2.4-3.5,2.4-5.7c0-2.2-0.8-4.1-2.4-5.7
		c-1.6-1.6-3.4-2.4-5.7-2.4h-3.3V79.2z"/>
	<path fill="#009DBC" d="M132,58.5V91h-4.4v-8.5h-12.9V91h-4.4V58.5h4.4V78h12.9V58.5H132z"/>
	<path fill="#009DBC" d="M140,91h-4.4V58.5h4.4V91z"/>
	<path fill="#009DBC" d="M167.1,65.9c-1-1-2.2-1.7-3.5-2.3c-1.5-0.6-3.1-0.9-4.7-0.9c-1.6,0-3.2,0.3-4.7,0.9
		c-1.4,0.6-2.7,1.5-3.8,2.6c-1.1,1.1-2,2.4-2.6,3.8c-0.6,1.5-0.9,3-0.9,4.7c0,1.6,0.3,3.2,0.9,4.7c0.6,1.4,1.5,2.7,2.6,3.8
		c1.1,1.1,2.4,2,3.8,2.6c1.5,0.6,3,0.9,4.7,0.9c1.6,0,3.2-0.3,4.7-0.9c1.3-0.6,2.4-1.3,3.5-2.2l3,3c-1.4,1.3-3,2.4-4.8,3.1
		c-2,0.8-4.1,1.3-6.3,1.3c-2.2,0-4.3-0.4-6.3-1.3c-1.9-0.8-3.6-2-5.2-3.5c-1.5-1.5-2.6-3.2-3.5-5.2c-0.8-2-1.3-4.1-1.3-6.3
		c0-2.2,0.4-4.3,1.3-6.3c0.8-1.9,2-3.7,3.5-5.2c1.5-1.5,3.2-2.7,5.2-3.5c2-0.9,4.1-1.3,6.3-1.3c2.2,0,4.3,0.4,6.3,1.3
		c1.8,0.8,3.4,1.8,4.8,3.1L167.1,65.9z"/>
	<polygon fill="#442B6B" points="64.1,0 56.8,0 45.9,16.5 45.9,14.4 45.9,0 39.9,0 39.9,44.7 45.9,44.7 45.9,28.2 56.8,44.7 
		64.1,44.7 49.4,22.3 	"/>
</g>
</svg>
